:SAMPLES-PER-SECOND 30
:FULLY-SPECIFIED
:DEGREES
127
root  34.88953658 36.49941091 -14.91835286 8.489001274 -8.580383301 4.540675163
lowerback  -7.253854752 -1.411437392 -1.114606857
upperback  -3.872220039 -1.386740804 -3.498559952
thorax  0.00943186041 -0.5410805345 -3.081120014
lowerneck  1.306529999 -19.8362999 -14.3579998
upperneck  12.12489986 -28.33280182 16.58799934
head  7.988480091 -13.39019966 4.670750141
lclavicle  0 -4.497500157e-015 -2.743230041e-014
lhumerus  -46.70360184 25.24270058 66.71920013
lradius  -0.04702470824 -6.507048965e-006 31.10199928
lwrist  4.824992743e-007 -3.790274832e-007 -26.05680084
lhand  -4.41004756e-031 -36.8030014 -10.61400032
lfingers  90 7.125020027 -90
lthumb  94.7577538 -25.45434248 100.9597633
rclavicle  0 -4.497500157e-015 -2.743230041e-014
rhumerus  -35.08769989 -32.13110352 -11.78499699
rradius  -5.16745672e-007 2.214343908e-008 79.28780365
rwrist  -7.499573258e-005 0.03438235447 -172.4539948
rhand  -1.770994413e-031 4.488649845 -5.377150059
rfingers  -90 -7.125020027 -90
rthumb  -83.94758481 -10.39783771 -59.56669466
rfemur  -13.51466751 16.78930855 11.44851589
rtibia  -1.656992078 -2.332792759 21.75391769
rfoot  0.2479317635 -23.78820992 -33.82914734
rtoes  4.052779221 19.60155716 -101.9255763
lfemur  -8.399079323 -17.10948753 -21.88965225
ltibia  2.608072996 -2.69888711 15.19709206
lfoot  1.243333459 -20.67338753 39.57157898
ltoes  -8.559267937 -18.14408928 -115.7952716
128
root  34.89120063 36.49942894 -14.91942368 8.489507675 -8.629336357 4.539810658
lowerback  -7.251476288 -1.408949971 -1.112668753
upperback  -3.872359991 -1.384330034 -3.505189896
thorax  0.007801599801 -0.5405423641 -3.088589907
lowerneck  1.338629961 -19.85219955 -14.35470009
upperneck  12.08189964 -28.35860062 16.63019943
head  7.979450226 -13.40330029 4.682340145
lclavicle  0 -4.497500157e-015 -2.743230041e-014
lhumerus  -46.69940186 24.9890995 66.85959625
lradius  -0.04710709676 -6.507048965e-006 31.2614975
lwrist  4.824992743e-007 -3.790274832e-007 -25.76650047
lhand  -4.411234421e-031 -36.82360077 -10.76970005
lfingers  90 7.125020027 -90
lthumb  94.80029511 -25.60651718 100.9959929
rclavicle  0 -4.497500157e-015 -2.743230041e-014
rhumerus  -34.51010132 -32.40800095 -11.62709904
rradius  -5.16745672e-007 2.214343908e-008 78.29910278
rwrist  -7.499573258e-005 0.03438235447 -172.2200012
rhand  -1.771374495e-031 4.642620087 -5.135449886
rfingers  -90 -7.125020027 -90
rthumb  -83.78197454 -10.61317891 -59.39288799
rfemur  -13.51652527 16.83564568 11.43270302
rtibia  -1.652576447 -2.347857714 21.74102211
rfoot  0.2478299737 -23.81391716 -33.83704758
rtoes  4.080411244 19.59603984 -102.0079537
lfemur  -8.414731979 -17.04316521 -21.8811512
ltibia  2.591123104 -2.672709465 15.21948528
lfoot  1.27168107 -20.754179 39.62051392
ltoes  -8.567206252 -18.14044123 -115.8207658
129
root  34.89330622 36.50006272 -14.92018212 8.49181366 -8.688315392 4.53910923
lowerback  -7.247750282 -1.406340003 -1.116789818
upperback  -3.859620094 -1.377740026 -3.517750025
thorax  0.01897479966 -0.5400249958 -3.098659992
lowerneck  1.331120014 -19.86529922 -14.32489967
upperneck  12.0571003 -28.37610245 16.64439964
head  7.973249912 -13.41009998 4.680119991
lclavicle  0 -4.497500157e-015 -2.743230041e-014
lhumerus  -46.64189911 24.90670013 66.88459778
lradius  -0.04718235508 -6.507048965e-006 31.27190018
lwrist  4.824992743e-007 -3.790274832e-007 -25.62610054
lhand  -4.408367143e-031 -36.7737999 -10.77089977
lfingers  90 7.125020027 -90
lthumb  94.77711377 -25.6094499 100.9427949
rclavicle  0 -4.497500157e-015 -2.743230041e-014
rhumerus  -33.93030167 -32.53350067 -11.52169895
rradius  -5.16745672e-007 2.214343908e-008 77.28869629
rwrist  -7.499573258e-005 0.03438235447 -171.9429932
rhand  -1.770573686e-031 4.311739922 -5.490880013
rfingers  -90 -7.125020027 -90
rthumb  -84.05217159 -10.29120478 -59.75062016
rfemur  -13.556077 16.88195801 11.42707062
rtibia  -1.662216306 -2.342350245 21.76900673
rfoot  0.2421389073 -23.8030529 -33.81893158
rtoes  4.081014721 19.59591891 -102.0097531
lfemur  -8.43258667 -17.0214901 -21.87201691
ltibia  2.577978849 -2.68531847 15.22495651
lfoot  1.270366669 -20.72448921 39.65142441
ltoes  -8.562897113 -18.14242202 -115.8069262
130
root  34.89482309 36.5003751 -14.92110425 8.49493885 -8.731614113 4.538759232
lowerback  -7.248030186 -1.403380036 -1.12868011
upperback  -3.848720074 -1.373329997 -3.522579908
thorax  0.03077520058 -0.5393948555 -3.096770048
lowerneck  1.350489974 -19.88459969 -14.31369972
upperneck  11.98989964 -28.40119934 16.66640091
head  7.953710079 -13.42539978 4.684289932
lclavicle  0 -4.497500157e-015 -2.743230041e-014
lhumerus  -46.57970047 24.8682003 66.90209961
lradius  -0.04725035653 -6.507048965e-006 31.24912453
lwrist  4.824992743e-007 -3.790274832e-007 -25.54529953
lhand  -0 -36.75149918 -10.63049984
lfingers  90 7.125020027 -90
lthumb  94.73712608 -25.4723017 100.9061681
rclavicle  0 -4.497500157e-015 -2.743230041e-014
rhumerus  -33.41650009 -32.53219986 -11.41039848
rradius  -5.16745672e-007 2.214343908e-008 76.35949707
rwrist  -7.499573258e-005 0.03438235447 -171.7030029
rhand  -1.770505954e-031 4.282569885 -5.357419968
rfingers  -90 -7.125020027 -90
rthumb  -83.99145156 -10.40512181 -59.76701069
rfemur  -13.58485222 16.87234688 11.42754078
rtibia  -1.671402097 -2.335463524 21.7958622
rfoot  0.2371296734 -23.79180145 -33.77740479
rtoes  4.062334294 19.59965373 -101.9540596
lfemur  -8.438212395 -17.02968979 -21.87208939
ltibia  2.567072868 -2.709364176 15.22592449
lfoot  1.250555754 -20.6678009 39.65317154
ltoes  -8.562313703 -18.1426901 -115.8050526
131
root  34.89602457 36.50065144 -14.92215254 8.497903824 -8.765197754 4.53913641
lowerback  -7.24023056 -1.41738987 -1.143999934
upperback  -3.848449945 -1.390290022 -3.535900116
thorax  0.02600950003 -0.5385186672 -3.103009939
lowerneck  1.347429991 -19.88349915 -14.26249981
upperneck  11.9843998 -28.40089989 16.68860054
head  7.948550224 -13.42070007 4.68596983
lclavicle  0 -4.497500157e-015 -2.743230041e-014
lhumerus  -46.58169937 24.9083004 66.80570221
lradius  -0.0473109968 -6.507048965e-006 31.2310009
lwrist  4.824992743e-007 -3.790274832e-007 -25.61370087
lhand  -4.405753553e-031 -36.72829819 -10.61279964
lfingers  90 7.125020027 -90
lthumb  94.72258146 -25.45578603 100.8797597
rclavicle  0 -4.497500157e-015 -2.743230041e-014
rhumerus  -32.83520126 -32.66449738 -11.28100014
rradius  -5.16745672e-007 2.214343908e-008 75.19920349
rwrist  -7.499573258e-005 0.03438235447 -171.8159943
rhand  -1.770363921e-031 4.220739841 -5.305339813
rfingers  -90 -7.125020027 -90
rthumb  -83.98096646 -10.44725776 -59.82281974
rfemur  -13.6062994 16.89264297 11.41952324
rtibia  -1.676398873 -2.332165241 21.81033134
rfoot  0.2355744988 -23.78334618 -33.76929092
rtoes  4.042548124 19.60359004 -101.8950806
lfemur  -8.481592178 -17.00356293 -21.85377312
ltibia  2.53209877 -2.719038725 15.2712574
lfoot  1.23957324 -20.67086601 39.6370697
ltoes  -8.556124848 -18.14553253 -115.7851788
132
root  34.89794093 36.50104493 -14.92330897 8.500795364 -8.812436104 4.528669357
lowerback  -7.235060692 -1.409980059 -1.17043972
upperback  -3.846326113 -1.378960013 -3.536240101
thorax  0.02563709952 -0.537263155 -3.087549925
lowerneck  1.352630019 -19.88400078 -14.3071003
upperneck  11.98840046 -28.41290092 16.7635994
head  7.969890118 -13.42240047 4.710179806
lclavicle  0 -4.497500157e-015 -2.743230041e-014
lhumerus  -46.56999969 24.9090004 66.78340149
lradius  -0.04736414179 -6.507048965e-006 31.23928261
lwrist  4.824992743e-007 -3.790274832e-007 -25.66530037
lhand  -4.406338952e-031 -36.73849869 -10.71860027
lfingers  90 7.125020027 -90
lthumb  94.74953527 -25.55935368 100.900262
rclavicle  0 -4.497500157e-015 -2.743230041e-014
rhumerus  -32.18709946 -32.76010513 -11.19959736
rradius  -5.16745672e-007 2.214343908e-008 74.20110321
rwrist  -7.499573258e-005 0.03438235447 -171.621994
rhand  -1.770614684e-031 4.329299927 -5.114290237
rfingers  -90 -7.125020027 -90
rthumb  -83.85449868 -10.61727343 -59.69842184
rfemur  -13.61716461 16.95707893 11.41545486
rtibia  -1.679726243 -2.319188595 21.79874992
rfoot  0.2433587164 -23.75040627 -33.78227234
rtoes  4.025422522 19.6069808 -101.8440415
lfemur  -8.538003922 -17.03878212 -21.82458687
ltibia  2.47957325 -2.772726297 15.35190487
lfoot  1.215963602 -20.59160042 39.62612152
ltoes  -8.570316176 -18.13901091 -115.8307547
133
root  34.89898922 36.50068749 -14.92451045 8.488771439 -8.834872246 4.534120083
lowerback  -7.245859623 -1.393829942 -1.140189767
upperback  -3.843849897 -1.359609962 -3.535949945
thorax  0.03517320007 -0.5354949236 -3.103199959
lowerneck  1.365910053 -19.90670013 -14.35039997
upperneck  11.9630003 -28.44749832 16.78470039
head  7.974619865 -13.44190025 4.715660095
lclavicle  0 -4.497500157e-015 -2.743230041e-014
lhumerus  -46.5340004 24.8871994 66.81710052
lradius  -0.04740967974 -6.507048965e-006 31.24860001
lwrist  4.824992743e-007 -3.790274832e-007 -25.63540077
lhand  -4.408200441e-031 -36.77090073 -10.72990036
lfingers  90 7.125020027 -90
lthumb  94.76712942 -25.56932825 100.9359658
rclavicle  0 -4.497500157e-015 -2.743230041e-014
rhumerus  -31.56339836 -32.92619705 -11.09290314
rradius  -5.16745672e-007 2.214343908e-008 73.21980286
rwrist  -7.499573258e-005 0.03438235447 -170.7449951
rhand  -1.770409408e-031 4.240640163 -4.992919922
rfingers  -90 -7.125020027 -90
rthumb  -83.81582689 -10.71817173 -59.77392075
rfemur  -13.60158253 16.97463226 11.40571308
rtibia  -1.682387948 -2.331071854 21.7897625
rfoot  0.2482338101 -23.77504921 -33.77112961
rtoes  4.030930171 19.60589197 -101.8604549
lfemur  -8.523079872 -17.02217293 -21.83660126
ltibia  2.479930878 -2.779963255 15.34062672
lfoot  1.206314445 -20.57328415 39.62120438
ltoes  -8.606805488 -18.12218031 -115.9480143
134
root  34.90034088 36.50044419 -14.92592218 8.479505539 -8.860136986 4.544555187
lowerback  -7.253110409 -1.401030064 -1.12849009
upperback  -3.84217 -1.368909955 -3.548290014
thorax  0.03984500095 -0.5322639942 -3.123450041
lowerneck  1.39673996 -19.90789986 -14.28460026
upperneck  11.89610004 -28.44409943 16.7947998
head  7.938769817 -13.44229984 4.718110085
lclavicle  0 -4.497500157e-015 -2.743230041e-014
lhumerus  -46.52780151 24.88979912 66.74250031
lradius  -0.04744748399 -6.507048965e-006 31.25139809
lwrist  4.824992743e-007 -3.790274832e-007 -25.68540001
lhand  -0 -36.78480148 -10.59710026
lfingers  90 7.125020027 -90
lthumb  94.74572055 -25.43851919 100.9387824
rclavicle  0 -4.497500157e-015 -2.743230041e-014
rhumerus  -31.03230095 -33.02510071 -11.01820278
rradius  -5.16745672e-007 2.214343908e-008 72.16459656
rwrist  -7.499573258e-005 0.03438235447 -170.4450073
rhand  -1.770447676e-031 4.257309914 -5.060579777
rfingers  -90 -7.125020027 -90
rthumb  -83.84604502 -10.66047534 -59.76399057
rfemur  -13.61428165 16.96247673 11.40568256
rtibia  -1.684526086 -2.348943472 21.81858826
rfoot  0.2283501625 -23.81961823 -33.76853943
rtoes  4.015721144 19.60889492 -101.8151324
lfemur  -8.50574398 -16.93844795 -21.85408401
ltibia  2.491520882 -2.746515512 15.31741428
lfoot  1.22685051 -20.64755821 39.63676834
ltoes  -8.611367557 -18.12006978 -115.9626821
